<svg width="20" height="21" viewBox="0 0 20 21" fill="none" xmlns="http://www.w3.org/2000/svg">
    <path d="M19.36 16.57L13.12 10.2L19.36 3.84C20.21 2.97 20.21 1.54 19.36 0.66C18.49 -0.22 17.1 -0.22 16.24 0.66L10.01 7.03L3.77 0.66C2.9 -0.21 1.52 -0.22 0.65 0.66C-0.21 1.55 -0.21 2.97 0.65 3.84L6.89 10.2L0.65 16.57C-0.22 17.44 -0.22 18.87 0.65 19.74C1.08 20.18 1.65 20.4 2.2 20.4C2.76 20.4 3.34 20.18 3.76 19.74L10.01 13.39L16.25 19.75C16.68 20.2 17.24 20.41 17.8 20.41C18.37 20.41 18.94 20.2 19.36 19.75C20.21 18.87 20.21 17.44 19.36 16.57Z" fill="#A0A0A0"/>
</svg>
